<svg width="26" height="20" viewBox="0 0 26 20" fill="none" xmlns="http://www.w3.org/2000/svg">
<path d="M24.7682 12.8105L21.4412 10.2328C21.2376 10.0754 21.2376 9.8171 21.4412 9.6593L24.7684 7.08224C24.9727 6.92459 25.058 6.65823 24.9583 6.49068C24.8584 6.32359 24.5794 6.26412 24.3391 6.35852L20.3828 7.912C20.1423 8.00734 19.9157 7.87738 19.8796 7.62408L19.2847 3.46035C19.248 3.2072 19.0548 3 18.8549 3C18.6559 3 18.4629 3.2072 18.4272 3.46019L17.8319 7.62424C17.7955 7.87754 17.5692 8.00718 17.3284 7.91215L13.4375 6.38448C13.1962 6.28977 12.8032 6.28977 12.5625 6.38448L8.67103 7.91215C8.43036 8.00718 8.20375 7.87754 8.16768 7.62424L7.5732 3.46019C7.53649 3.2072 7.34371 3 7.14454 3C6.94473 3 6.75146 3.2072 6.71556 3.46019L6.12028 7.62424C6.08421 7.87754 5.85775 8.00718 5.61709 7.91215L1.66098 6.35899C1.42047 6.26412 1.14198 6.32391 1.04208 6.49084C0.942335 6.65855 1.0274 6.92507 1.23104 7.0824L4.55852 9.65946C4.76232 9.81726 4.76232 10.0756 4.55852 10.2331L1.23104 12.8105C1.02676 12.9681 0.942176 13.2504 1.04176 13.4373C1.14182 13.6245 1.42031 13.6997 1.6605 13.6047L5.58118 12.0524C5.82216 11.9576 6.04623 12.0867 6.0799 12.34L6.64549 16.5401C6.67965 16.793 6.90371 17 7.14342 17C7.38281 17 7.60703 16.7931 7.64134 16.5401L8.20789 12.34C8.24141 12.0867 8.46643 11.9577 8.70614 12.0524L12.5625 13.5782C12.8029 13.6736 13.1961 13.6736 13.4366 13.5782L17.2923 12.0524C17.5323 11.9576 17.7567 12.0867 17.791 12.34L18.3576 16.5401C18.3914 16.793 18.6157 17 18.8547 17C19.0944 17 19.3187 16.7931 19.3526 16.5401L19.9192 12.34C19.9537 12.0867 20.1777 11.9577 20.4178 12.0524L24.3389 13.6047C24.5783 13.6997 24.8576 13.6243 24.9575 13.4374C25.0576 13.2508 24.9725 12.9686 24.7684 12.8109L24.7682 12.8105ZM16.3035 10.2655L13.3734 12.4894C13.1683 12.6451 12.8319 12.6451 12.6275 12.4894L9.6964 10.2655C9.49149 10.1097 9.48989 9.85329 9.69321 9.69517L12.6297 7.41499C12.833 7.25687 13.1664 7.25687 13.3699 7.41499L16.3064 9.69517C16.5102 9.85313 16.5086 10.1096 16.3032 10.2657L16.3035 10.2655Z" fill="#A7A7A7"/>
</svg>
